<svg width="28" height="28" viewBox="0 0 28 28" fill="none" xmlns="http://www.w3.org/2000/svg">
<g clip-path="url(#clip0)">
<path d="M9.40055 21.7329C9.40055 21.8423 9.27326 21.9298 9.11276 21.9298C8.93012 21.9462 8.80282 21.8587 8.80282 21.7329C8.80282 21.6236 8.93012 21.5361 9.09062 21.5361C9.25665 21.5197 9.40055 21.6072 9.40055 21.7329ZM7.67931 21.4868C7.64057 21.5962 7.75126 21.722 7.9173 21.7548C8.06119 21.8095 8.22723 21.7548 8.26044 21.6454C8.29364 21.5361 8.18849 21.4103 8.02245 21.3611C7.87855 21.3228 7.71805 21.3775 7.67931 21.4868ZM10.1256 21.3939C9.96508 21.4322 9.85438 21.5361 9.87099 21.6618C9.88759 21.7712 10.0315 21.8423 10.1975 21.804C10.358 21.7657 10.4687 21.6618 10.4521 21.5525C10.4355 21.4486 10.2861 21.3775 10.1256 21.3939ZM13.7673 0.437622C6.0909 0.437622 0.21875 6.19622 0.21875 13.7814C0.21875 19.8462 4.08186 25.0361 9.5998 26.8626C10.3082 26.9884 10.5573 26.5564 10.5573 26.2009C10.5573 25.8618 10.5407 23.9915 10.5407 22.8431C10.5407 22.8431 6.66649 23.6634 5.85291 21.2134C5.85291 21.2134 5.22197 19.622 4.31431 19.2118C4.31431 19.2118 3.0469 18.3532 4.40286 18.3697C4.40286 18.3697 5.78096 18.479 6.5392 19.7806C7.75126 21.8915 9.78244 21.2845 10.5739 20.9236C10.7012 20.0486 11.0609 19.4415 11.4594 19.0806C8.36559 18.7415 5.24411 18.2986 5.24411 13.0376C5.24411 11.5337 5.66474 10.779 6.55026 9.81653C6.40637 9.46106 5.93593 7.99543 6.69416 6.10325C7.85088 5.74778 10.513 7.57981 10.513 7.57981C11.6199 7.27356 12.8098 7.11497 13.9887 7.11497C15.1675 7.11497 16.3575 7.27356 17.4644 7.57981C17.4644 7.57981 20.1265 5.74231 21.2832 6.10325C22.0414 8.0009 21.571 9.46106 21.4271 9.81653C22.3126 10.7845 22.855 11.5392 22.855 13.0376C22.855 18.315 19.5952 18.7361 16.5014 19.0806C17.0105 19.5126 17.4422 20.3329 17.4422 21.6181C17.4422 23.4611 17.4256 25.7415 17.4256 26.19C17.4256 26.5454 17.6802 26.9775 18.3831 26.8517C23.9177 25.0361 27.6701 19.8462 27.6701 13.7814C27.6701 6.19622 21.4437 0.437622 13.7673 0.437622ZM5.59832 19.2993C5.52637 19.354 5.54298 19.4798 5.63707 19.5837C5.72562 19.6712 5.85291 19.7095 5.92486 19.6384C5.99681 19.5837 5.98021 19.4579 5.88612 19.354C5.79757 19.2665 5.67027 19.2282 5.59832 19.2993ZM5.00059 18.8564C4.96185 18.9275 5.0172 19.015 5.12789 19.0697C5.21644 19.1243 5.32713 19.1079 5.36587 19.0314C5.40461 18.9603 5.34927 18.8728 5.23858 18.8181C5.12789 18.7853 5.03933 18.8017 5.00059 18.8564ZM6.79378 20.8032C6.70523 20.8743 6.73844 21.0384 6.86573 21.1423C6.99303 21.2681 7.15353 21.2845 7.22548 21.197C7.29743 21.1259 7.26422 20.9618 7.15353 20.8579C7.03177 20.7322 6.86573 20.7157 6.79378 20.8032ZM6.16285 19.9993C6.07429 20.054 6.07429 20.1962 6.16285 20.322C6.2514 20.4478 6.40083 20.5025 6.47278 20.4478C6.56133 20.3767 6.56133 20.2345 6.47278 20.1087C6.3953 19.9829 6.2514 19.9282 6.16285 19.9993Z" fill="white"/>
</g>
<defs>
<clipPath id="clip0">
<rect width="27.4513" height="28" fill="white" transform="translate(0.21875 0.00012207)"/>
</clipPath>
</defs>
</svg>
