<svg width="26" height="30" viewBox="0 0 26 30" fill="none" xmlns="http://www.w3.org/2000/svg">
<g clip-path="url(#clip0)">
<path d="M13.008 8.07149C9.50859 8.07149 6.68593 11.0081 6.68593 14.6488C6.68593 18.2895 9.50859 21.2261 13.008 21.2261C16.5075 21.2261 19.3301 18.2895 19.3301 14.6488C19.3301 11.0081 16.5075 8.07149 13.008 8.07149ZM13.008 18.9249C10.7466 18.9249 8.89784 17.0073 8.89784 14.6488C8.89784 12.2904 10.7411 10.3727 13.008 10.3727C15.275 10.3727 17.1182 12.2904 17.1182 14.6488C17.1182 17.0073 15.2695 18.9249 13.008 18.9249ZM21.0633 7.80245C21.0633 8.65538 20.4031 9.33658 19.5887 9.33658C18.7689 9.33658 18.1141 8.64966 18.1141 7.80245C18.1141 6.95524 18.7744 6.26831 19.5887 6.26831C20.4031 6.26831 21.0633 6.95524 21.0633 7.80245ZM25.2506 9.35948C25.157 7.30443 24.7058 5.48407 23.2587 3.98428C21.8171 2.4845 20.0674 2.0151 18.0921 1.91206C16.0563 1.79185 9.95428 1.79185 7.91844 1.91206C5.94863 2.00937 4.19891 2.47877 2.75182 3.97856C1.30472 5.47835 0.859041 7.2987 0.76 9.35376C0.644453 11.4718 0.644453 17.8201 0.76 19.9381C0.853539 21.9932 1.30472 23.8135 2.75182 25.3133C4.19891 26.8131 5.94313 27.2825 7.91844 27.3856C9.95428 27.5058 16.0563 27.5058 18.0921 27.3856C20.0674 27.2882 21.8171 26.8188 23.2587 25.3133C24.7003 23.8135 25.1515 21.9932 25.2506 19.9381C25.3661 17.8201 25.3661 11.4775 25.2506 9.35948ZM22.6205 22.2107C22.1913 23.3327 21.3605 24.1971 20.2765 24.6493C18.6533 25.3191 14.8018 25.1645 13.008 25.1645C11.2143 25.1645 7.35721 25.3133 5.73954 24.6493C4.6611 24.2028 3.83026 23.3384 3.39558 22.2107C2.75182 20.522 2.90038 16.515 2.90038 14.6488C2.90038 12.7827 2.75732 8.76987 3.39558 7.0869C3.82476 5.96492 4.6556 5.10054 5.73954 4.64831C7.36271 3.97856 11.2143 4.13312 13.008 4.13312C14.8018 4.13312 18.6589 3.98428 20.2765 4.64831C21.355 5.09481 22.1858 5.9592 22.6205 7.0869C23.2642 8.77559 23.1157 12.7827 23.1157 14.6488C23.1157 16.515 23.2642 20.5278 22.6205 22.2107Z" fill="white"/>
</g>
<defs>
<clipPath id="clip0">
<rect width="24.6501" height="29.3088" fill="white" transform="translate(0.677246 0.00012207)"/>
</clipPath>
</defs>
</svg>
