<svg width="26" height="28" viewBox="0 0 26 28" fill="none" xmlns="http://www.w3.org/2000/svg">
<g clip-path="url(#clip0)">
<path d="M6.18438 24.5006H1.0158V8.14352H6.18438V24.5006ZM3.59731 5.91227C1.94456 5.91227 0.604004 4.56696 0.604004 2.94274C0.604004 2.16257 0.919369 1.41435 1.48072 0.862685C2.04208 0.311021 2.80343 0.00109863 3.59731 0.00109863C4.39118 0.00109863 5.15254 0.311021 5.71389 0.862685C6.27524 1.41435 6.59061 2.16257 6.59061 2.94274C6.59061 4.56696 5.24949 5.91227 3.59731 5.91227ZM25.5287 24.5006H20.3713V16.5381C20.3713 14.6404 20.3323 12.2068 17.684 12.2068C14.9968 12.2068 14.585 14.2685 14.585 16.4013V24.5006H9.42198V8.14352H14.3791V10.3748H14.4514C15.1415 9.08961 16.827 7.73336 19.3418 7.73336C24.5727 7.73336 25.5343 11.1185 25.5343 15.5154V24.5006H25.5287Z" fill="white"/>
</g>
<defs>
<clipPath id="clip0">
<rect width="24.9303" height="28" fill="white" transform="translate(0.604004 0.00012207)"/>
</clipPath>
</defs>
</svg>
