<svg width="33" height="28" viewBox="0 0 33 28" fill="none" xmlns="http://www.w3.org/2000/svg">
<path d="M31.0472 6.43684C31.2514 5.75325 31.0472 5.25012 30.0648 5.25012H26.8141C25.9863 5.25012 25.6055 5.68215 25.4013 6.1634C25.4013 6.1634 23.7456 10.1611 21.4055 12.7532C20.6494 13.5025 20.3017 13.7431 19.8878 13.7431C19.6836 13.7431 19.369 13.5025 19.369 12.8189V6.43684C19.369 5.61653 19.1372 5.25012 18.4528 5.25012H13.3422C12.8234 5.25012 12.5144 5.63293 12.5144 5.9884C12.5144 6.76497 13.6844 6.94543 13.8058 9.13293V13.8798C13.8058 14.9189 13.6182 15.1103 13.2042 15.1103C12.1004 15.1103 9.4182 11.0962 7.82872 6.50247C7.50862 5.61106 7.19403 5.25012 6.36066 5.25012H3.10996C2.18276 5.25012 1.99512 5.68215 1.99512 6.1634C1.99512 7.01653 3.09892 11.2548 7.13332 16.8548C9.82108 20.6775 13.6071 22.7501 17.051 22.7501C19.1206 22.7501 19.3745 22.2907 19.3745 21.4978C19.3745 17.8447 19.1869 17.5001 20.2244 17.5001C20.7046 17.5001 21.5324 17.7407 23.4641 19.5837C25.6717 21.7712 26.036 22.7501 27.2722 22.7501H30.5229C31.4501 22.7501 31.9192 22.2907 31.6488 21.3829C31.0307 19.4743 26.8528 15.5478 26.6651 15.2853C26.185 14.6728 26.3229 14.3993 26.6651 13.8525C26.6706 13.847 30.6388 8.31262 31.0472 6.43684Z" fill="white"/>
</svg>
